# xmcd
#
# Track frame offsets:
#	150
#	14936
#	27862
#	42601
#	52643
#	64234
#	80289
#	95598
#	105503
#	120833
#	131417
#	143602
#	153917
#	168704
#	183704
#	193264
#
# Disc length: 2749 seconds
#
# Revision: 0
# Processed by: cddbd v1.5.2PL0 Copyright (c) Steve Scherf et al.
# Submitted via: EasyCDDAExtractor 9.1.1.5
#
DISCID=d70abb10
DTITLE=Captain Cook und seine singenden Saxophone - White Christmas
DYEAR=2006
DGENRE=
TTITLE0=White christmas
TTITLE1=Aba heidschi bum beidschi
TTITLE2=Winter wonderland
TTITLE3=Leise rieselt der Schnee
TTITLE4=Frosty, the Snowman
TTITLE5=Süßer die Glocken nie klingen
TTITLE6=Blue christmas
TTITLE7=Oh Tannenbaum
TTITLE8=Jingle bells
TTITLE9=Es wird schon glei dumper
TTITLE10=Let it snow
TTITLE11=Am Weihnachtsbaum die Lichter brennen
TTITLE12=Rudolph, the red nose rendeer
TTITLE13=Silver bells
TTITLE14=Kling Glöckchen klingelingeling
TTITLE15=Stille Nacht
EXTD=
EXTT0=
EXTT1=
EXTT2=
EXTT3=
EXTT4=
EXTT5=
EXTT6=
EXTT7=
EXTT8=
EXTT9=
EXTT10=
EXTT11=
EXTT12=
EXTT13=
EXTT14=
EXTT15=
PLAYORDER=
